# xmcd
# 
# Track frame offsets:
#     150
#     15864
#     34239
#     51909
#     71340
#     86451
#     103032
#     122769
#     141948
#     158646
#     180210
#     197445
#     214484
#     226472
# 
# Disc length: 3232
# 
# Revision: 2
# Processed by: cddbd v1.5.2PL0 Copyright (c) Steve Scherf et al.
# Submitted via: BonkEnc v1.0.5
# 
DISCID=b30c9e0e
DTITLE=Various Artist - söz müzik teoman
DYEAR=2007
DGENRE=OTHER
TTITLE0=sezen aksu - paramparça
TTITLE1=yalın - gönülçelen
TTITLE2=candan erçetin - kim
TTITLE3=yaşar - rüzgar gülü
TTITLE4=nil karaibrahimgil - istanbul'da sonbahar
TTITLE5=emre aydın - sürpriz
TTITLE6=izel - senden önce senden sonra
TTITLE7=mirkelam - güzel bir gün
TTITLE8=irem candar - duş
TTITLE9=yavuz bingöl - iki çocuk
TTITLE10=kreş - bugün
TTITLE11=harun tekin - istasyon insanları
TTITLE12=rashit - kişisel bir şey
TTITLE13=hayko cepkin - gökdelenler
EXTD=
EXTT0=
EXTT1=
EXTT2=
EXTT3=
EXTT4=
EXTT5=
EXTT6=
EXTT7=
EXTT8=
EXTT9=
EXTT10=
EXTT11=
EXTT12=
EXTT13=
PLAYORDER=
